inDegrees=yes
name=ik_Xsens
DataType=double
version=3
OpenSimVersion=4.4-2022-07-23-0e9fedc
endheader
time	pelvis_tilt	pelvis_list	pelvis_rotation	pelvis_tx	pelvis_ty	pelvis_tz	hip_flexion_r	hip_adduction_r	hip_rotation_r	knee_angle_r	knee_angle_r_beta	ankle_angle_r	subtalar_angle_r	mtp_angle_r	hip_flexion_l	hip_adduction_l	hip_rotation_l	knee_angle_l	knee_angle_l_beta	ankle_angle_l	subtalar_angle_l	mtp_angle_l	lumbar_extension	lumbar_bending	lumbar_rotation	arm_flex_r	arm_add_r	arm_rot_r	elbow_flex_r	pro_sup_r	wrist_flex_r	wrist_dev_r	arm_flex_l	arm_add_l	arm_rot_l	elbow_flex_l	pro_sup_l	wrist_flex_l	wrist_dev_l
20.95	0	0	0	0	0.93	0	0	0	0	0	0	0	0	0	0	0	0	0	0	0	0	0	0	0	0	-7.584614881211898	14.38847734168093	9.887293188258187	186.3190292615735	137.7075183412832	0	0	81.70050574845183	-50.31833763388507	2.058173350899247	-78.15794099392048	72.32592194124032	0	0
20.96666666666667	0	0	0	0	0.93	0	0	0	0	0	0	0	0	0	0	0	0	0	0	0	0	0	0	0	0	-7.824422351850751	14.24959163709749	10.29909948055631	186.6325767742988	138.0859995582044	0	0	81.64631573285961	-50.37736544649297	2.138476977674284	-78.23369902052866	72.77886220305253	0	0
20.98333333333333	0	0	0	0	0.93	0	0	0	0	0	0	0	0	0	0	0	0	0	0	0	0	0	0	0	0	-8.263988559239333	14.04750768641728	11.75913665565365	187.3149986259895	139.44964179502	0	0	81.68138936563015	-50.4324052915369	2.292130875259032	-78.35874614565422	73.17000724797067	0	0
21	5.882820200558653e-26	-1.04411897867056e-17	-5.23899272462825e-26	3.943551294903809e-27	0.93	1.940941570672023e-25	6.621937060917535e-33	1.898244196047807e-23	1.854066921396495e-31	9.316252015397474e-16	1.625992716748953e-17	-6.356049262992044e-19	-7.537348435336054e-20	-2.729619592493904e-16	-2.103893265779098e-23	-2.735522738671955e-32	3.663719136746057e-23	9.394142617140623e-16	1.639585086107914e-17	-4.6035640970443e-20	9.848836923557175e-21	-4.164177464909998e-16	2.094191921057133e-25	-6.550547988765876e-26	1.32503508396546e-26	-8.629167892440085	13.88807854630242	13.40449680851178	187.9772220136751	141.0356518546534	-1.624199559547711e-17	-3.037592425880918e-16	81.72379576023103	-50.47486967089933	2.447345732227841	-78.37678900876629	73.59086971435474	3.628763587174504e-18	3.553757783854227e-18
21.01666666666667	-7.470932971343859e-29	1.808985470042769e-24	2.654174073822115e-29	5.755016238190798e-28	0.93	7.800111560152304e-27	-4.310455369189608e-35	-1.617056634925437e-25	1.562578674684135e-35	0	-3.038948089947832e-17	-2.647697582948061e-24	8.139732938273823e-21	4.076188821397738e-22	4.50805315382505e-25	-4.787946062711587e-31	-4.858522963690293e-24	0	-3.038961580745537e-17	6.93636265530632e-20	-5.442093750568076e-21	-1.239132228849299e-23	5.264832214868037e-29	2.072593445826428e-22	3.592980365931933e-24	-8.725822223221993	13.85121214887844	14.43715687016627	188.2139766926904	142.0591136262777	-3.88682107562452e-19	-5.799108457689587e-23	81.66591433126271	-50.44566066737396	2.475721375385101	-78.20959786841786	73.78927845933988	1.854498507900228e-22	-5.178053055968725e-24
21.03333333333333	0	0	0	0	0.93	0	0	0	0	0	0	0	0	0	0	0	0	0	0	0	0	0	0	0	0	-8.799875765203755	13.86915429703067	14.67584318737522	188.3236368587627	142.2675316692669	0	0	81.65220337519281	-50.46751786537303	2.531699364954155	-78.18836513127313	73.66602458031454	0	0
21.05	0	0	0	0	0.93	0	0	0	0	0	-9.183549615799121e-41	0	0	0	0	0	0	0	-9.183549615799121e-41	0	0	0	0	0	0	-8.922957489724819	13.91363581463489	14.71152422670672	188.4288125008178	142.2773598830441	0	0	81.63049618831428	-50.58375873025535	2.707211356961201	-78.38306581355774	73.64111072887901	0	0
21.06666666666667	0	0	0	0	0.93	0	0	0	0	0	0	0	0	0	0	0	0	0	0	0	0	0	0	0	0	-9.110321391984774	13.9296422369304	14.81864265159909	188.6449173662045	142.3366185779184	0	0	81.73742789632831	-50.75758204354409	2.966397063982206	-78.79734670842463	73.62956074459917	0	0
21.08333333333333	-1.443845253265368e-25	-6.38226146947284e-23	-5.540963960058174e-26	-6.23729074239386e-25	0.93	4.513898307157584e-36	-1.191835192192925e-25	-8.889010259307146e-24	-1.295242396570092e-23	3.597890494174325e-16	6.280217133664568e-18	2.803177516271445e-22	-2.235265726322342e-21	-1.614631545019813e-20	1.465609910040557e-24	-1.964136452383228e-19	-9.899237239261728e-19	3.597891640998253e-16	7.407982393714231e-18	-1.857945268623422e-22	-7.024193928516753e-25	1.266812746274631e-21	-6.773031311990482e-17	-1.310396162465573e-17	2.348727994055467e-17	-9.182814519571762	13.93739323849005	14.90439036103648	188.73356610143	142.4078422840952	2.372736995378461e-24	4.599801183944139e-24	81.7828797837871	-50.87331751258813	3.081708576523361	-79.01114224540291	73.66721026715477	1.726795904084922e-23	2.35125582897683e-25
21.1	0	0	0	0	0.93	0	0	0	0	0	-9.183549615799121e-41	0	0	0	0	0	0	0	0	0	0	0	0	0	0	-9.230982406034276	13.9918848960807	14.38840353622119	188.6711171356883	141.8569229837833	0	0	81.76407893740884	-51.01402048473325	3.196076753038624	-79.29017116336205	74.03920279245889	0	0
21.11666666666667	0	0	0	0	0.93	0	0	0	0	0	0	0	0	0	0	0	0	0	0	0	0	0	0	0	0	-9.116404960378224	14.06342330083357	13.83698192171469	188.4610974119907	141.3314034110609	0	0	82.02463840628029	-51.24697957031409	3.586835534106176	-79.91232829281068	74.64676939497015	0	0
21.13333333333333	0	0	0	0	0.93	0	0	0	0	0	0	0	0	0	0	0	0	0	0	0	0	0	0	0	0	-9.028598547229748	14.12605960571094	13.64920737082958	188.3630029561661	141.1614374670489	0	0	82.01090029787079	-51.33798308086854	3.625945748786416	-80.09468340763479	74.74454534274346	0	0
